<?xml version="1.0" encoding="UTF-8"?>
<svg width="1920px" height="950px" viewBox="0 0 1920 950" version="1.1" xmlns="http://www.w3.org/2000/svg" xmlns:xlink="http://www.w3.org/1999/xlink">
    <!-- Generator: Sketch 64 (93537) - https://sketch.com -->
    <title>首页背景@2x</title>
    <desc>Created with Sketch.</desc>
    <defs>
        <rect id="path-1" x="0" y="0" width="1920" height="950"></rect>
        <linearGradient x1="50%" y1="97.3504739%" x2="50%" y2="69.2286757%" id="linearGradient-3">
            <stop stop-color="#00FBF9" stop-opacity="0" offset="0%"></stop>
            <stop stop-color="#00F5F1" offset="100%"></stop>
        </linearGradient>
        <linearGradient x1="50%" y1="0%" x2="50%" y2="100%" id="linearGradient-4">
            <stop stop-color="#00FBF9" offset="0%"></stop>
            <stop stop-color="#00F5F1" stop-opacity="0.129835009" offset="100%"></stop>
        </linearGradient>
        <linearGradient x1="50%" y1="100%" x2="50%" y2="50%" id="linearGradient-5">
            <stop stop-color="#00FBF9" stop-opacity="0" offset="0%"></stop>
            <stop stop-color="#00F5F1" offset="100%"></stop>
        </linearGradient>
        <linearGradient x1="50%" y1="97.3941201%" x2="50%" y2="0%" id="linearGradient-6">
            <stop stop-color="#00FBF9" stop-opacity="0" offset="0%"></stop>
            <stop stop-color="#00F7F4" stop-opacity="0.666196786" offset="10.3776165%"></stop>
            <stop stop-color="#00F5F1" stop-opacity="0.953920165" offset="80.393545%"></stop>
            <stop stop-color="#00F5F1" stop-opacity="0" offset="100%"></stop>
        </linearGradient>
        <linearGradient x1="50%" y1="100%" x2="50%" y2="50%" id="linearGradient-7">
            <stop stop-color="#00FBF9" stop-opacity="0" offset="0%"></stop>
            <stop stop-color="#00F5F1" offset="100%"></stop>
        </linearGradient>
        <linearGradient x1="50%" y1="100%" x2="50%" y2="50%" id="linearGradient-8">
            <stop stop-color="#00FBF9" stop-opacity="0" offset="0%"></stop>
            <stop stop-color="#00F5F1" offset="100%"></stop>
        </linearGradient>
        <linearGradient x1="50%" y1="100%" x2="50%" y2="50%" id="linearGradient-9">
            <stop stop-color="#00FBF9" stop-opacity="0" offset="0%"></stop>
            <stop stop-color="#00F5F1" offset="100%"></stop>
        </linearGradient>
        <linearGradient x1="50%" y1="100%" x2="50%" y2="50%" id="linearGradient-10">
            <stop stop-color="#00FBF9" stop-opacity="0" offset="0%"></stop>
            <stop stop-color="#00F5F1" offset="100%"></stop>
        </linearGradient>
        <radialGradient cx="44.6216426%" cy="56.5599174%" fx="44.6216426%" fy="56.5599174%" r="72.2830579%" gradientTransform="translate(0.446216,0.565599),scale(0.267119,1.000000),rotate(90.000000),scale(1.000000,1.579653),translate(-0.446216,-0.565599)" id="radialGradient-11">
            <stop stop-color="#23457A" offset="0%"></stop>
            <stop stop-color="#1E1924" offset="100%"></stop>
        </radialGradient>
        <filter x="-8.5%" y="-31.8%" width="117.0%" height="163.6%" filterUnits="objectBoundingBox" id="filter-12">
            <feGaussianBlur stdDeviation="50" in="SourceGraphic"></feGaussianBlur>
        </filter>
        <radialGradient cx="44.6216426%" cy="56.5599174%" fx="44.6216426%" fy="56.5599174%" r="72.2830579%" gradientTransform="translate(0.446216,0.565599),scale(0.647001,1.000000),rotate(90.000000),scale(1.000000,1.579653),translate(-0.446216,-0.565599)" id="radialGradient-13">
            <stop stop-color="#23457A" offset="0%"></stop>
            <stop stop-color="#1E1924" offset="100%"></stop>
        </radialGradient>
        <filter x="-4.9%" y="-7.6%" width="109.9%" height="115.3%" filterUnits="objectBoundingBox" id="filter-14">
            <feGaussianBlur stdDeviation="50" in="SourceGraphic"></feGaussianBlur>
        </filter>
        <linearGradient x1="70.857484%" y1="9.15724328%" x2="50%" y2="100%" id="linearGradient-15">
            <stop stop-color="#339DC5" stop-opacity="0" offset="0%"></stop>
            <stop stop-color="#176493" offset="100%"></stop>
        </linearGradient>
        <linearGradient x1="66.4236429%" y1="9.15724328%" x2="50%" y2="100%" id="linearGradient-16">
            <stop stop-color="#339DC5" stop-opacity="0" offset="0%"></stop>
            <stop stop-color="#176493" offset="100%"></stop>
        </linearGradient>
        <filter x="-17.5%" y="-14.8%" width="135.0%" height="129.6%" filterUnits="objectBoundingBox" id="filter-17">
            <feOffset dx="0" dy="2" in="SourceAlpha" result="shadowOffsetOuter1"></feOffset>
            <feGaussianBlur stdDeviation="11" in="shadowOffsetOuter1" result="shadowBlurOuter1"></feGaussianBlur>
            <feColorMatrix values="0 0 0 0 0.152941176   0 0 0 0 0.568627451   0 0 0 0 0.823529412  0 0 0 1 0" type="matrix" in="shadowBlurOuter1" result="shadowMatrixOuter1"></feColorMatrix>
            <feMerge>
                <feMergeNode in="shadowMatrixOuter1"></feMergeNode>
                <feMergeNode in="SourceGraphic"></feMergeNode>
            </feMerge>
        </filter>
    </defs>
    <g id="页面-1" stroke="none" strokeWidth="1" fill="none" fillRule="evenodd">
        <g id="DEX首页" transform="translate(0.000000, -87.000000)">
            <g id="首页背景" transform="translate(0.000000, 87.000000)">
                <mask id="mask-2" fill="white">
                    <use xlink:href="#path-1"></use>
                </mask>
                <g id="蒙版">
                    <use fill="#051338" xlink:href="#path-1"></use>
                    <use fill="#1E1924" xlink:href="#path-1"></use>
                </g>
                <g id="编组-5" opacity="0.0484095982" mask="url(#mask-2)">
                    <g transform="translate(1289.000000, -58.000000)">
                        <polygon id="矩形" fill="url(#linearGradient-3)" points="356.764045 19.8540108 378 21.509959 378 278.098726 356.764045 278.098726"></polygon>
                        <rect id="矩形备份-6" fill="url(#linearGradient-4)" opacity="0.0568963914" x="250.58427" y="106.08749" width="21.2359551" height="259.078652"></rect>
                        <rect id="矩形备份-9" fill="url(#linearGradient-4)" opacity="0.0568963914" x="53.0898876" y="214.390861" width="21.2359551" height="259.078652"></rect>
                        <rect id="矩形备份" fill="url(#linearGradient-5)" opacity="0.25797526" x="197.494382" y="110.334681" width="29.7303371" height="303.674157"></rect>
                        <rect id="矩形备份-7" fill="url(#linearGradient-6)" opacity="0.25797526" x="271.820225" y="25.3908609" width="25.4831461" height="242.089888"></rect>
                        <rect id="矩形备份-8" fill="url(#linearGradient-7)" opacity="0.576427641" x="82.8202247" y="65.7391755" width="25.4831461" height="299.426966"></rect>
                        <rect id="矩形备份-3" fill="url(#linearGradient-8)" opacity="0.25797526" x="0" y="110.334681" width="21.2359551" height="278.191011"></rect>
                        <polygon id="矩形备份-4" fill="url(#linearGradient-9)" opacity="0.25797526" points="129.539326 -1.03696261e-13 142.280899 1.02809812 142.280899 267.480749 129.539326 267.480749"></polygon>
                        <rect id="矩形备份-5" fill="url(#linearGradient-10)" opacity="0.25797526" x="165.640449" y="169.795355" width="12.741573" height="148.651685"></rect>
                    </g>
                </g>
                <ellipse id="椭圆形" fill="url(#radialGradient-11)" opacity="0.583240327" filter="url(#filter-12)" mask="url(#mask-2)" cx="895.5" cy="648" rx="883.5" ry="236"></ellipse>
                <ellipse id="椭圆形备份-10" fill="url(#radialGradient-13)" opacity="0.583240327" filter="url(#filter-14)" mask="url(#mask-2)" cx="878" cy="1371.5" rx="1517" ry="981.5"></ellipse>
                <g id="编组备份-3" opacity="0.551269531" mask="url(#mask-2)" fillRule="nonzero">
                    <g transform="translate(747.500000, 1004.500000) rotate(-90.000000) translate(-747.500000, -1004.500000) translate(616.000000, 800.000000)" id="形状结合">
                        <path d="M177.578838,0 L206.157677,16.5 L206.157162,49.334 L234.157677,65.5 L234.157162,98.334 L262.157677,114.5 L262.157677,147.5 L233.578838,164 L233.578838,196.5 L205.578162,212.666 L205.578162,245.334 L233.578838,261.5 L233.578838,294.5 L205.578162,310.666 L205.578838,343.5 L177.578162,359.666 L177.578838,392.5 L149,409 L120.999162,392.834 L93,409 L64.4211617,392.5 L64.4201617,359.666 L36.4211617,343.5 L36.4211617,310.666 L8.42116168,294.5 L8.42116168,261.5 L36.4211617,245.334 L36.4211617,212.666 L8.42116168,196.5 L8.42116168,163.5 L36.4211617,147.334 L36.4211617,114.5 L64.4201617,98.334 L64.4211617,65.5 L92.4211617,49.334 L92.4211617,16.5 L121,0 L149.289162,16.333 L177.578838,0 Z M93,344.155 L65.421,360.077 L65.421,391.922 L93,407.844 L120.421162,392.012 L120.421162,359.987 L93,344.155 Z M149,344.155 L121.578162,359.986 L121.578162,392.013 L149,407.844 L176.578,391.922 L176.578,360.077 L149,344.155 Z M177,295.155 L149.578162,310.986 L149.578162,343.013 L177,358.844 L204.578,342.922 L204.578,311.077 L177,295.155 Z M121,295.155 L93.5781617,310.986 L93.5781617,343.013 L121,358.844 L148.421162,343.012 L148.421162,310.987 L121,295.155 Z M65,295.155 L37.421,311.077 L37.421,342.922 L65,358.844 L92.4211617,343.012 L92.4211617,310.987 L65,295.155 Z M93,246.155 L65.5781617,261.986 L65.5781617,294.013 L93,309.844 L120.421162,294.012 L120.421162,261.987 L93,246.155 Z M37,246.155 L9.421,262.077 L9.421,293.922 L37,309.844 L64.4201617,294.013 L64.4201617,261.986 L37,246.155 Z M149,246.155 L121.578162,261.986 L121.578162,294.013 L149,309.844 L176.421162,294.012 L176.421162,261.987 L149,246.155 Z M205,246.155 L177.578162,261.986 L177.578162,294.013 L205,309.844 L232.578,293.922 L232.578,262.077 L205,246.155 Z M121,197.155 L93.5781617,212.986 L93.5781617,245.013 L121,260.844 L148.421162,245.012 L148.421162,212.987 L121,197.155 Z M177,197.155 L149.578162,212.986 L149.578162,245.013 L177,260.844 L204.578,244.922 L204.578,213.077 L177,197.155 Z M65,197.155 L37.421,213.077 L37.421,244.922 L65,260.844 L92.4211617,245.012 L92.4211617,212.987 L65,197.155 Z M93,148.155 L65.5781617,163.986 L65.5781617,196.013 L93,211.844 L120.421162,196.012 L120.421162,163.987 L93,148.155 Z M149,148.155 L121.578162,163.986 L121.578162,196.013 L149,211.844 L176.421162,196.012 L176.421162,163.987 L149,148.155 Z M205,148.155 L177.578162,163.986 L177.578162,196.013 L205,211.844 L232.578,195.922 L232.578,164.077 L205,148.155 Z M37,148.155 L9.421,164.077 L9.421,195.922 L37,211.844 L64.4201617,196.013 L64.4201617,163.986 L37,148.155 Z M121,99.155 L93.5781617,114.986 L93.5781617,147.013 L121,162.844 L148.421162,147.012 L148.421162,114.987 L121,99.155 Z M177,99.155 L149.578162,114.986 L149.578162,147.013 L177,162.844 L204.578,146.922 L204.578,115.077 L177,99.155 Z M233.578838,99.155 L205.999838,115.077 L205.999838,146.922 L233.578838,162.844 L261.156838,146.922 L261.156838,115.077 L233.578838,99.155 Z M65,99.155 L37.421,115.077 L37.421,146.922 L65,162.844 L92.4211617,147.012 L92.4211617,114.987 L65,99.155 Z M93,50.155 L65.421,66.077 L65.421,97.922 L93,113.844 L120.421162,98.012 L120.421162,65.987 L93,50.155 Z M205.578838,50.155 L177.999838,66.077 L177.999838,97.922 L205.578838,113.844 L233.156838,97.922 L233.156838,66.077 L205.578838,50.155 Z M149,50.155 L121.578162,65.986 L121.578162,98.013 L149,113.844 L176.578,97.922 L176.578,66.077 L149,50.155 Z M121,1.155 L93.421,17.077 L93.421,48.922 L121,64.844 L148.578,48.922 L148.578,17.077 L121,1.155 Z M177.578838,1.155 L149.999838,17.077 L149.999838,48.922 L177.578838,64.844 L205.156838,48.922 L205.156838,17.077 L177.578838,1.155 Z" fill="url(#linearGradient-15)"></path>
                        <path d="M113,0 L141.578838,16.5 L141.578162,49.334 L169.578838,65.5 L169.578162,98.334 L197.578838,114.5 L197.578162,147.334 L225.578838,163.5 L225.578838,196.5 L197.578162,212.666 L197.578162,245.334 L225.578838,261.5 L225.578838,294.5 L197.578162,310.666 L197.578838,343.5 L169.578162,359.666 L169.578838,392.5 L141,409 L112.999162,392.834 L85,409 L56.4211617,392.5 L56.4201617,359.666 L28.4211617,343.5 L28.4201617,310.666 L0.421161675,294.5 L0.421161675,261.5 L28.4201617,245.334 L28.4201617,212.666 L0.421161675,196.5 L0.421161675,163.5 L28.4201617,147.334 L28.4211617,114.5 L56.4201617,98.334 L56.4211617,65.5 L84.4211617,49.334 L84.4211617,16.5 L113,0 Z M85,344.155 L57.421,360.077 L57.421,391.922 L85,407.844 L112.421162,392.012 L112.421162,359.987 L85,344.155 Z M141,344.155 L113.578162,359.986 L113.578162,392.013 L141,407.844 L168.578,391.922 L168.578,360.077 L141,344.155 Z M169,295.155 L141.578162,310.986 L141.578162,343.013 L169,358.844 L196.578,342.922 L196.578,311.077 L169,295.155 Z M113,295.155 L85.5781617,310.986 L85.5781617,343.013 L113,358.844 L140.421162,343.012 L140.421162,310.987 L113,295.155 Z M57,295.155 L29.421,311.077 L29.421,342.922 L57,358.844 L84.4211617,343.012 L84.4211617,310.987 L57,295.155 Z M85,246.155 L57.5781617,261.986 L57.5781617,294.013 L85,309.844 L112.421162,294.012 L112.421162,261.987 L85,246.155 Z M29,246.155 L1.421,262.077 L1.421,293.922 L29,309.844 L56.4201617,294.013 L56.4201617,261.986 L29,246.155 Z M141,246.155 L113.578162,261.986 L113.578162,294.013 L141,309.844 L168.421162,294.012 L168.421162,261.987 L141,246.155 Z M197,246.155 L169.578162,261.986 L169.578162,294.013 L197,309.844 L224.578,293.922 L224.578,262.077 L197,246.155 Z M113,197.155 L85.5781617,212.986 L85.5781617,245.013 L113,260.844 L140.421162,245.012 L140.421162,212.987 L113,197.155 Z M169,197.155 L141.578162,212.986 L141.578162,245.013 L169,260.844 L196.578,244.922 L196.578,213.077 L169,197.155 Z M57,197.155 L29.421,213.077 L29.421,244.922 L57,260.844 L84.4211617,245.012 L84.4211617,212.987 L57,197.155 Z M85,148.155 L57.5781617,163.986 L57.5781617,196.013 L85,211.844 L112.421162,196.012 L112.421162,163.987 L85,148.155 Z M141,148.155 L113.578162,163.986 L113.578162,196.013 L141,211.844 L168.421162,196.012 L168.421162,163.987 L141,148.155 Z M197,148.155 L169.578162,163.986 L169.578162,196.013 L197,211.844 L224.578,195.922 L224.578,164.077 L197,148.155 Z M29,148.155 L1.421,164.077 L1.421,195.922 L29,211.844 L56.4201617,196.013 L56.4201617,163.986 L29,148.155 Z M113,99.155 L85.5781617,114.986 L85.5781617,147.013 L113,162.844 L140.421162,147.012 L140.421162,114.987 L113,99.155 Z M169,99.155 L141.578162,114.986 L141.578162,147.013 L169,162.844 L196.578,146.922 L196.578,115.077 L169,99.155 Z M57,99.155 L29.421,115.077 L29.421,146.922 L57,162.844 L84.4211617,147.012 L84.4211617,114.987 L57,99.155 Z M85,50.155 L57.421,66.077 L57.421,97.922 L85,113.844 L112.421162,98.012 L112.421162,65.987 L85,50.155 Z M141,50.155 L113.578162,65.986 L113.578162,98.013 L141,113.844 L168.578,97.922 L168.578,66.077 L141,50.155 Z M113,1.155 L85.421,17.077 L85.421,48.922 L113,64.844 L140.578,48.922 L140.578,17.077 L113,1.155 Z" fill="url(#linearGradient-16)" opacity="0.312848772"></path>
                    </g>
                </g>
                <g id="编组" opacity="0.551269531" mask="url(#mask-2)">
                    <g transform="translate(-59.000000, 158.000000)">
                        <path d="M177.578838,0 L206.157677,16.5 L206.157162,49.334 L234.157677,65.5 L234.157162,98.334 L262.157677,114.5 L262.157677,147.5 L233.578838,164 L233.578838,196.5 L205.578162,212.666 L205.578162,245.334 L233.578838,261.5 L233.578838,294.5 L205.578162,310.666 L205.578838,343.5 L177.578162,359.666 L177.578838,392.5 L149,409 L120.999162,392.834 L93,409 L64.4211617,392.5 L64.4201617,359.666 L36.4211617,343.5 L36.4211617,310.666 L8.42116168,294.5 L8.42116168,261.5 L36.4211617,245.334 L36.4211617,212.666 L8.42116168,196.5 L8.42116168,163.5 L36.4211617,147.334 L36.4211617,114.5 L64.4201617,98.334 L64.4211617,65.5 L92.4211617,49.334 L92.4211617,16.5 L121,0 L149.289162,16.333 L177.578838,0 Z M93,344.155 L65.421,360.077 L65.421,391.922 L93,407.844 L120.421162,392.012 L120.421162,359.987 L93,344.155 Z M149,344.155 L121.578162,359.986 L121.578162,392.013 L149,407.844 L176.578,391.922 L176.578,360.077 L149,344.155 Z M177,295.155 L149.578162,310.986 L149.578162,343.013 L177,358.844 L204.578,342.922 L204.578,311.077 L177,295.155 Z M121,295.155 L93.5781617,310.986 L93.5781617,343.013 L121,358.844 L148.421162,343.012 L148.421162,310.987 L121,295.155 Z M65,295.155 L37.421,311.077 L37.421,342.922 L65,358.844 L92.4211617,343.012 L92.4211617,310.987 L65,295.155 Z M93,246.155 L65.5781617,261.986 L65.5781617,294.013 L93,309.844 L120.421162,294.012 L120.421162,261.987 L93,246.155 Z M37,246.155 L9.421,262.077 L9.421,293.922 L37,309.844 L64.4201617,294.013 L64.4201617,261.986 L37,246.155 Z M149,246.155 L121.578162,261.986 L121.578162,294.013 L149,309.844 L176.421162,294.012 L176.421162,261.987 L149,246.155 Z M205,246.155 L177.578162,261.986 L177.578162,294.013 L205,309.844 L232.578,293.922 L232.578,262.077 L205,246.155 Z M121,197.155 L93.5781617,212.986 L93.5781617,245.013 L121,260.844 L148.421162,245.012 L148.421162,212.987 L121,197.155 Z M177,197.155 L149.578162,212.986 L149.578162,245.013 L177,260.844 L204.578,244.922 L204.578,213.077 L177,197.155 Z M65,197.155 L37.421,213.077 L37.421,244.922 L65,260.844 L92.4211617,245.012 L92.4211617,212.987 L65,197.155 Z M93,148.155 L65.5781617,163.986 L65.5781617,196.013 L93,211.844 L120.421162,196.012 L120.421162,163.987 L93,148.155 Z M149,148.155 L121.578162,163.986 L121.578162,196.013 L149,211.844 L176.421162,196.012 L176.421162,163.987 L149,148.155 Z M205,148.155 L177.578162,163.986 L177.578162,196.013 L205,211.844 L232.578,195.922 L232.578,164.077 L205,148.155 Z M37,148.155 L9.421,164.077 L9.421,195.922 L37,211.844 L64.4201617,196.013 L64.4201617,163.986 L37,148.155 Z M121,99.155 L93.5781617,114.986 L93.5781617,147.013 L121,162.844 L148.421162,147.012 L148.421162,114.987 L121,99.155 Z M177,99.155 L149.578162,114.986 L149.578162,147.013 L177,162.844 L204.578,146.922 L204.578,115.077 L177,99.155 Z M233.578838,99.155 L205.999838,115.077 L205.999838,146.922 L233.578838,162.844 L261.156838,146.922 L261.156838,115.077 L233.578838,99.155 Z M65,99.155 L37.421,115.077 L37.421,146.922 L65,162.844 L92.4211617,147.012 L92.4211617,114.987 L65,99.155 Z M93,50.155 L65.421,66.077 L65.421,97.922 L93,113.844 L120.421162,98.012 L120.421162,65.987 L93,50.155 Z M205.578838,50.155 L177.999838,66.077 L177.999838,97.922 L205.578838,113.844 L233.156838,97.922 L233.156838,66.077 L205.578838,50.155 Z M149,50.155 L121.578162,65.986 L121.578162,98.013 L149,113.844 L176.578,97.922 L176.578,66.077 L149,50.155 Z M121,1.155 L93.421,17.077 L93.421,48.922 L121,64.844 L148.578,48.922 L148.578,17.077 L121,1.155 Z M177.578838,1.155 L149.999838,17.077 L149.999838,48.922 L177.578838,64.844 L205.156838,48.922 L205.156838,17.077 L177.578838,1.155 Z" id="形状结合" fill="url(#linearGradient-15)" fillRule="nonzero"></path>
                        <path d="M113,0 L141.578838,16.5 L141.578162,49.334 L169.578838,65.5 L169.578162,98.334 L197.578838,114.5 L197.578162,147.334 L225.578838,163.5 L225.578838,196.5 L197.578162,212.666 L197.578162,245.334 L225.578838,261.5 L225.578838,294.5 L197.578162,310.666 L197.578838,343.5 L169.578162,359.666 L169.578838,392.5 L141,409 L112.999162,392.834 L85,409 L56.4211617,392.5 L56.4201617,359.666 L28.4211617,343.5 L28.4201617,310.666 L0.421161675,294.5 L0.421161675,261.5 L28.4201617,245.334 L28.4201617,212.666 L0.421161675,196.5 L0.421161675,163.5 L28.4201617,147.334 L28.4211617,114.5 L56.4201617,98.334 L56.4211617,65.5 L84.4211617,49.334 L84.4211617,16.5 L113,0 Z M85,344.155 L57.421,360.077 L57.421,391.922 L85,407.844 L112.421162,392.012 L112.421162,359.987 L85,344.155 Z M141,344.155 L113.578162,359.986 L113.578162,392.013 L141,407.844 L168.578,391.922 L168.578,360.077 L141,344.155 Z M169,295.155 L141.578162,310.986 L141.578162,343.013 L169,358.844 L196.578,342.922 L196.578,311.077 L169,295.155 Z M113,295.155 L85.5781617,310.986 L85.5781617,343.013 L113,358.844 L140.421162,343.012 L140.421162,310.987 L113,295.155 Z M57,295.155 L29.421,311.077 L29.421,342.922 L57,358.844 L84.4211617,343.012 L84.4211617,310.987 L57,295.155 Z M85,246.155 L57.5781617,261.986 L57.5781617,294.013 L85,309.844 L112.421162,294.012 L112.421162,261.987 L85,246.155 Z M29,246.155 L1.421,262.077 L1.421,293.922 L29,309.844 L56.4201617,294.013 L56.4201617,261.986 L29,246.155 Z M141,246.155 L113.578162,261.986 L113.578162,294.013 L141,309.844 L168.421162,294.012 L168.421162,261.987 L141,246.155 Z M197,246.155 L169.578162,261.986 L169.578162,294.013 L197,309.844 L224.578,293.922 L224.578,262.077 L197,246.155 Z M113,197.155 L85.5781617,212.986 L85.5781617,245.013 L113,260.844 L140.421162,245.012 L140.421162,212.987 L113,197.155 Z M169,197.155 L141.578162,212.986 L141.578162,245.013 L169,260.844 L196.578,244.922 L196.578,213.077 L169,197.155 Z M57,197.155 L29.421,213.077 L29.421,244.922 L57,260.844 L84.4211617,245.012 L84.4211617,212.987 L57,197.155 Z M85,148.155 L57.5781617,163.986 L57.5781617,196.013 L85,211.844 L112.421162,196.012 L112.421162,163.987 L85,148.155 Z M141,148.155 L113.578162,163.986 L113.578162,196.013 L141,211.844 L168.421162,196.012 L168.421162,163.987 L141,148.155 Z M197,148.155 L169.578162,163.986 L169.578162,196.013 L197,211.844 L224.578,195.922 L224.578,164.077 L197,148.155 Z M29,148.155 L1.421,164.077 L1.421,195.922 L29,211.844 L56.4201617,196.013 L56.4201617,163.986 L29,148.155 Z M113,99.155 L85.5781617,114.986 L85.5781617,147.013 L113,162.844 L140.421162,147.012 L140.421162,114.987 L113,99.155 Z M169,99.155 L141.578162,114.986 L141.578162,147.013 L169,162.844 L196.578,146.922 L196.578,115.077 L169,99.155 Z M57,99.155 L29.421,115.077 L29.421,146.922 L57,162.844 L84.4211617,147.012 L84.4211617,114.987 L57,99.155 Z M85,50.155 L57.421,66.077 L57.421,97.922 L85,113.844 L112.421162,98.012 L112.421162,65.987 L85,50.155 Z M141,50.155 L113.578162,65.986 L113.578162,98.013 L141,113.844 L168.578,97.922 L168.578,66.077 L141,50.155 Z M113,1.155 L85.421,17.077 L85.421,48.922 L113,64.844 L140.578,48.922 L140.578,17.077 L113,1.155 Z" id="形状结合" fill="url(#linearGradient-16)" fillRule="nonzero" opacity="0.312848772"></path>
                        <circle id="椭圆形" fill="#2791D2" fillRule="evenodd" cx="93" cy="245" r="2"></circle>
                        <circle id="椭圆形备份" fill="#2791D2" fillRule="evenodd" cx="149" cy="211" r="2"></circle>
                        <circle id="椭圆形备份-2" fill="#2791D2" fillRule="evenodd" cx="121" cy="262" r="2"></circle>
                        <circle id="椭圆形备份-4" fill="#2791D2" fillRule="evenodd" cx="121" cy="294" r="2"></circle>
                        <circle id="椭圆形备份-5" fill="#2791D2" fillRule="evenodd" cx="149" cy="310" r="2"></circle>
                        <circle id="椭圆形备份-6" fill="#2791D2" fillRule="evenodd" cx="149" cy="344" r="2"></circle>
                        <circle id="椭圆形备份-3" fill="#2791D2" fillRule="evenodd" cx="149" cy="245" r="2"></circle>
                    </g>
                </g>
                <g id="编组备份" filter="url(#filter-17)" opacity="0.336914062" mask="url(#mask-2)">
                    <g transform="translate(1918.500000, 248.500000) rotate(259.000000) translate(-1918.500000, -248.500000) translate(1787.000000, 93.000000)">
                        <path d="M89,147.57735 L60.9211617,163.788675 L60.9211617,196.211325 L89,212.42265 L117.078838,196.211325 L117.078838,163.788675 L89,147.57735 Z" id="多边形" stroke="#176493" strokeWidth="1" fill="none"></path>
                        <path d="M117,98.5773503 L88.9211617,114.788675 L88.9211617,147.211325 L117,163.42265 L145.078838,147.211325 L145.078838,114.788675 L117,98.5773503 Z" id="多边形备份" stroke="#176493" strokeWidth="1" fill="none"></path>
                        <path d="M173,98.5773503 L144.921162,114.788675 L144.921162,147.211325 L173,163.42265 L201.078838,147.211325 L201.078838,114.788675 L173,98.5773503 Z" id="多边形备份-5" stroke="#176493" strokeWidth="1" fill="none"></path>
                        <path d="M61,98.5773503 L32.9211617,114.788675 L32.9211617,147.211325 L61,163.42265 L89.0788383,147.211325 L89.0788383,114.788675 L61,98.5773503 Z" id="多边形备份-4" stroke="#176493" strokeWidth="1" fill="none"></path>
                        <path d="M89,49.5773503 L60.9211617,65.7886751 L60.9211617,98.2113249 L89,114.42265 L117.078838,98.2113249 L117.078838,65.7886751 L89,49.5773503 Z" id="多边形备份-12" stroke="#176493" strokeWidth="1" fill="none"></path>
                        <path d="M145,49.5773503 L116.921162,65.7886751 L116.921162,98.2113249 L145,114.42265 L173.078838,98.2113249 L173.078838,65.7886751 L145,49.5773503 Z" id="多边形备份-13" stroke="#176493" strokeWidth="1" fill="none"></path>
                        <path d="M33,49.5773503 L4.92116168,65.7886751 L4.92116168,98.2113249 L33,114.42265 L61.0788383,98.2113249 L61.0788383,65.7886751 L33,49.5773503 Z" id="多边形备份-14" stroke="#176493" strokeWidth="1" fill="none"></path>
                        <path d="M61,0.577350269 L32.9211617,16.7886751 L32.9211617,49.2113249 L61,65.4226497 L89.0788383,49.2113249 L89.0788383,16.7886751 L61,0.577350269 Z" id="多边形备份-15" stroke="#176493" strokeWidth="1" fill="none"></path>
                        <path d="M145,147.57735 L116.921162,163.788675 L116.921162,196.211325 L145,212.42265 L173.078838,196.211325 L173.078838,163.788675 L145,147.57735 Z" id="多边形备份-2" stroke="#176493" strokeWidth="1" fill="none"></path>
                        <path d="M201,147.57735 L172.921162,163.788675 L172.921162,196.211325 L201,212.42265 L229.078838,196.211325 L229.078838,163.788675 L201,147.57735 Z" id="多边形备份-7" stroke="#176493" strokeWidth="1" fill="none"></path>
                        <path d="M229.259321,99.201797 L201.180482,115.413122 L201.180482,147.835772 L229.259321,164.047096 L257.338159,147.835772 L257.338159,115.413122 L229.259321,99.201797 Z" id="多边形备份-16" stroke="#176493" strokeWidth="1" fill="none"></path>
                        <circle id="椭圆形" stroke="none" fill="#2791D2" fillRule="evenodd" cx="89" cy="147" r="2"></circle>
                        <circle id="椭圆形备份" stroke="none" fill="#2791D2" fillRule="evenodd" cx="145" cy="113" r="2"></circle>
                        <circle id="椭圆形备份-3" stroke="none" fill="#2791D2" fillRule="evenodd" cx="145" cy="147" r="2"></circle>
                    </g>
                </g>
            </g>
        </g>
    </g>
</svg>